# xmcd
# 
# Track frame offsets:
#     150
#     20495
#     45863
#     67370
#     84779
#     102766
#     120417
#     138634
#     156770
#     177842
#     190209
#     208864
#     229423
#     249586
# 
# Disc length: 3725
# 
# Revision: 4
# Processed by: cddbd v1.5.2PL0 Copyright (c) Steve Scherf et al.
# Submitted via: fre:ac v1.1beta1pre5
# 
DISCID=bc0e8b0e
DTITLE=Russel Watson - the golden voice
DYEAR=2004
DGENRE=Country
TTITLE0=Nella fantasia
TTITLE1=Caruso
TTITLE2=Miserere
TTITLE3=Volare (Nel blu dipinto di blu)
TTITLE4=Panis angelicus
TTITLE5=Someone Like You with Faye Tozer
TTITLE6=Where My Heart Will Take Me (Theme from Enterprise)
TTITLE7=Amor ti vieta
TTITLE8=Saylon Dola
TTITLE9=Funiculi
TTITLE10=Vienna
TTITLE11=Barcelona with Shaun Ryder
TTITLE12=Nessun dorma!
TTITLE13=Bohemian Rhapsody
EXTD=
EXTT0=
EXTT1=
EXTT2=
EXTT3=
EXTT4=
EXTT5=
EXTT6=
EXTT7=
EXTT8=
EXTT9=
EXTT10=
EXTT11=
EXTT12=
EXTT13=
PLAYORDER=
